PathFileType	4	(X/Y/Z)	Patient4_TMGait_0pt4_01_left_30.trc.trc
DataRate	CameraRate	NumFrames	NumMarkers	Units	OrigDataRate	OrigDataStartFrame	OrigNumFrames
74.866310160428	74.866310160428	4	33	mm	74.866310160428	124	       141
Frame#	Time	Sacral			L.Shoulder			Chest			R.Shoulder			Neck			R.ASIS			L.ASIS			R.Thigh.Superior			R.Thigh.Lateral			R.Thigh.Inferior			R.Patella			L.Thigh.Superior			L.Thigh.Lateral			L.Thigh.Inferior			L.Patella			L.Shank.Superior			L.Shank.Lateral			L.Shank.Inferior			R.Shank.Superior			R.Shank.Lateral			R.Shank.Inferior			R.Heel			R.Midfoot.Superior			R.Midfoot.Lateral			R.Toe			L.Heel			L.Midfoot.Lateral			L.Midfoot.Superior			L.Toe			L.Elbow			L.Wrist			R.Elbow			R.Wrist			
		X1	Y1	Z1	X2	Y2	Z2	X3	Y3	Z3	X4	Y4	Z4	X5	Y5	Z5	X6	Y6	Z6	X7	Y7	Z7	X8	Y8	Z8	X9	Y9	Z9	X10	Y10	Z10	X11	Y11	Z11	X12	Y12	Z12	X13	Y13	Z13	X14	Y14	Z14	X15	Y15	Z15	X16	Y16	Z16	X17	Y17	Z17	X18	Y18	Z18	X19	Y19	Z19	X20	Y20	Z20	X21	Y21	Z21	X22	Y22	Z22	X23	Y23	Z23	X24	Y24	Z24	X25	Y25	Z25	X26	Y26	Z26	X27	Y27	Z27	X28	Y28	Z28	X29	Y29	Z29	X30	Y30	Z30	X31	Y31	Z31	X32	Y32	Z32	X33	Y33	Z33	

124	38.362928571429	915.364008872538	996.761886351100	559.358295531853	1055.677892253609	1433.111559987048	367.973129010263	1181.488250840576	1367.157759581543	512.786711414357	1118.751510390752	1434.741602420484	697.510377554050	1060.645606669368	1491.067840256843	524.514555536783	1155.230030966348	936.105132371335	650.813626327448	1113.977931261014	961.757361562167	379.327888238069	1156.758688127292	724.359413408259	621.818256322304	1056.996905006100	626.921981402790	687.849272533373	1115.415970010449	563.358669883180	605.231074026714	1096.843663370261	477.777184509775	610.076936723415	1191.335990305194	767.663011696544	405.279822932472	1131.357655375484	638.179637986485	336.530796893373	1235.016680831589	578.156000235607	394.474731494035	1253.725606381852	509.373097293296	395.225108044780	1233.330878312054	435.764167487304	385.316170521534	1156.020697633868	312.462722878335	333.996687889219	1232.042114624350	205.731987136269	390.514272159745	1057.915308937805	393.407014396383	618.350178062079	975.045699747346	299.671076994750	682.596494829924	1001.141587742010	200.677913726440	617.443306520017	851.152860199872	43.709304293336	586.863048958763	1021.301226783013	96.334583906802	626.326478954180	932.155592289080	36.820246013806	663.698418146551	1140.652433401292	42.721141070552	657.995576115433	1129.303767208545	41.083611139977	428.779882173714	1202.882934111924	38.100104499091	348.440228192792	1283.864146044159	102.933847906721	371.954459723597	1412.600628726970	56.271682627651	344.269103877129	975.050080750092	1089.620061998599	256.357872953185	1031.259711559380	838.037463032050	207.443461098200	1165.708056737689	1102.925901365471	841.463905499291	1369.594937022397	953.141993298588	790.206496399166	
125	38.376285714286	916.778947214977	995.598700507324	557.105126718174	1055.624595200985	1431.810871815796	365.070396045323	1181.361559945708	1367.007215956631	510.504976917719	1117.520910008850	1434.574890045715	694.910260037914	1059.947957782078	1490.292037285858	521.560207375558	1156.615641921501	935.484739940540	649.412002960558	1116.119554430870	960.895870708555	378.059072889369	1158.198925127719	723.436749729045	620.637677176571	1057.836121296010	626.160736754215	686.345323774815	1116.122893962328	562.275354331846	603.898941597575	1096.904071819853	476.144941480094	608.616129051520	1193.340187150651	765.606349657886	404.766875143127	1132.164897299445	636.669601344519	336.604999785935	1235.139568009081	576.157348404169	395.460218295995	1252.622134194297	506.673114976618	396.667741367258	1231.698009485134	432.953645132610	386.417788495151	1153.131471303813	310.571206290316	334.867307799609	1226.879829352067	202.898564489759	392.234038839747	1056.742413839416	392.306653519374	617.181604860967	972.775866909142	299.748373643826	681.880901526829	997.395881748413	200.300289080782	616.954048181751	845.851735483208	44.175357625287	586.935571709558	1016.143563819903	96.312561731323	626.221841161555	926.892428782250	36.989664252379	663.718457722074	1135.401676692910	42.387580216066	658.088211185855	1121.375660400761	39.681307495888	429.922729054310	1194.830222124117	37.068889633607	349.366892967995	1276.600617122122	100.439057422741	373.986063380614	1405.036757388484	52.525536199552	345.448209969632	976.308071830496	1087.998164656586	253.704689427731	1033.136803948785	836.567778622043	204.735282816501	1163.153909646531	1102.268882871387	838.588908759113	1367.057002870515	952.765212269261	786.709834976792	
126	38.389642857143	918.113016954893	994.720686367164	554.831824167906	1055.786453019189	1430.716930265039	362.098665047016	1181.407576721416	1366.965652336581	508.136261188552	1116.579044261531	1434.616330951460	692.217616108687	1059.490579896250	1489.734184269095	518.514264833801	1157.883291157988	935.032193742001	647.825603200411	1118.040813731146	960.345363381404	376.637444439319	1159.658036094017	722.707500025907	619.268549456081	1058.838343760250	625.523843269243	684.684714217122	1117.107633725350	561.343168116305	602.447415981876	1097.362799003434	474.528905035745	607.138060149618	1195.165745836648	764.038926579773	404.330377067460	1133.321006539108	635.740107962839	336.360910148090	1235.401830043984	574.696899427946	396.387957850505	1251.808458478040	504.602187305670	397.895895112609	1230.446047864363	430.776681682600	387.264889223514	1150.987635540362	309.241505018620	335.234749269123	1222.396560383561	200.731885408440	393.551140346839	1055.816874909355	391.305673211177	615.974788687141	970.645740473552	300.039257701348	681.104943309817	993.784567249722	200.091811233120	616.474297239841	840.580143713502	44.935855135237	587.039611051205	1011.064030750956	96.292348814148	626.075752290006	921.677422404947	37.284061693180	663.736850168418	1130.210336128400	41.978103420698	658.204085234717	1114.331586549183	38.709483515662	430.570160777689	1187.780503545421	36.474540818855	349.926378934077	1270.117652259559	98.682283363286	375.561757220438	1398.368111396398	49.785874300361	346.427553664568	978.008518995109	1086.540303626993	250.938904856908	1035.370584534348	835.219257332127	201.991355368219	1160.237007352023	1101.723921327701	835.607050626953	1363.836423038049	951.933691415559	783.414984756497	
127	38.403000000000	919.339746186928	994.164083276030	552.539929020505	1056.144350595129	1429.892349677640	359.105458277302	1181.620328842420	1367.048550259114	505.696640517126	1115.966670748494	1434.885307482404	689.459556348440	1059.276094019470	1489.425117741660	515.426370077909	1159.001972824008	934.797505419740	646.041392320108	1119.698304637566	960.118856871908	375.015743701420	1161.053754239701	722.218604747483	617.715623668634	1059.952238356143	625.055289168702	682.890881114425	1118.356039005854	560.604623471035	600.923323563541	1098.251801961899	472.960929956040	605.739929807980	1196.803381587082	763.051231825791	403.877366752875	1134.779607824092	635.369338584677	335.793131685653	1235.804502192409	573.770282724194	397.103624888033	1251.269498071197	503.142126671629	398.804042908338	1229.535387968295	429.209925084264	387.826720087700	1149.480631632427	308.453352223287	335.141215441739	1218.520701170797	199.205755787801	394.469620199814	1055.156494490645	390.440090939268	614.794511376098	968.655026745138	300.586502180907	680.293420280950	990.329050203804	200.094494388643	616.041442708548	835.351206123781	46.069716212628	587.182849478987	1006.080978929013	96.279887403939	625.892008658520	916.514793585808	37.740865877869	663.755817332132	1125.076904641820	41.502769893059	658.338297406332	1108.109896510472	38.149408630342	430.820106906277	1181.632464452693	36.242435685563	350.187012294814	1264.347265616923	97.592888830391	376.674523458488	1392.499196063927	47.936110023736	347.160145761839	980.126013078424	1085.322340457859	248.077019284292	1037.982790913682	834.073749031817	199.237040963082	1156.998178723350	1101.324996063141	832.524634435181	1359.938071922521	950.637279403312	780.325861870535	
